# xmcd CD database file
#
# Track frame offsets:
#	150
#	19451
#	51631
#	71346
#	94247
#	110037
#	135755
#	166478
#	174669
#	179899
#	208910
#
# Disc length: 3213 seconds
#
# Revision: 0
# Processed by: cddbd v1.5PL3 Copyright (c) Steve Scherf et al.
# Submitted via: CDex 1.51
#
DISCID=aa0c8b0b
DTITLE=Brandon Walker - The Hollywood Jazz Collective
DYEAR=2000
DGENRE=Jazz
TTITLE0=The Tease
TTITLE1=B's Peas
TTITLE2=One for Elisabeth
TTITLE3=The Hollywood Jazz Collective
TTITLE4=The Mocha
TTITLE5=The Brando Walk
TTITLE6=Autumn Becomes You
TTITLE7=Twelve Tone Love
TTITLE8=Yikes Sykes (drum solo intro)
TTITLE9=Yikes Sykes
TTITLE10=Lure
EXTD=YEAR: 2000
EXTT0=
EXTT1=
EXTT2=
EXTT3=
EXTT4=
EXTT5=
EXTT6=
EXTT7=
EXTT8=
EXTT9=
EXTT10=
PLAYORDER=
